<svg id="Livello_1" data-name="Livello 1" xmlns="http://www.w3.org/2000/svg" viewBox="0 0 425.22 128.52"><defs><style>.cls-1,.cls-3{fill:#274279;}.cls-2{fill:none;stroke:#fbc00a;stroke-miterlimit:10;stroke-width:5px;}.cls-3{font-size:29.53px;font-family:CourierNewPS-BoldMT, Courier New;font-weight:700;letter-spacing:0.22em;}.cls-4{letter-spacing:0.17em;}.cls-5{letter-spacing:0.22em;}.cls-6{letter-spacing:0.22em;}.cls-7{letter-spacing:0.22em;}.cls-8{letter-spacing:0.24em;}.cls-9{letter-spacing:0.24em;}</style></defs><title>Tavola disegno 1</title><path class="cls-1" d="M22.84,11.48a7.27,7.27,0,0,1,2.13-5,7.68,7.68,0,0,1,5.38-1.73,6.5,6.5,0,0,1,4.8,1.88A6.59,6.59,0,0,1,37,11.48v.63L35.11,44.26H45.38L47.3,11.48a6.63,6.63,0,0,1,2-5,8,8,0,0,1,5.51-1.73,6.5,6.5,0,0,1,4.8,1.88,6.59,6.59,0,0,1,1.88,4.86v.63L59.57,44.26h8.26a5.17,5.17,0,0,1,4,1.53,6.41,6.41,0,0,1,1.38,4.43,6.41,6.41,0,0,1-1.38,4.43,5.17,5.17,0,0,1-4,1.53H58.9l-1.17,18h10.1a5.17,5.17,0,0,1,4,1.53,6.41,6.41,0,0,1,1.38,4.43,6.41,6.41,0,0,1-1.38,4.43,5.17,5.17,0,0,1-4,1.53H57l-1.67,31a7,7,0,0,1-2,5,7.56,7.56,0,0,1-5.3,1.73A6.67,6.67,0,0,1,43,121.87a6.74,6.74,0,0,1-1.92-5v-.63L43,86.06H32.61l-1.75,31a6.64,6.64,0,0,1-2,5,7.71,7.71,0,0,1-5.34,1.73,6.24,6.24,0,0,1-4.8-2,7.35,7.35,0,0,1-1.88-5.18v-.31l1.59-30.19H9.82a5.1,5.1,0,0,1-4-1.57,6.69,6.69,0,0,1-1.38-4.55A6.11,6.11,0,0,1,5.77,75.6a5.33,5.33,0,0,1,4-1.45h9.27l1.17-18H9.82a5.22,5.22,0,0,1-4.09-1.49,6.51,6.51,0,0,1-1.34-4.47,6.41,6.41,0,0,1,1.38-4.43,5.17,5.17,0,0,1,4-1.53h11.1Zm10.6,62.66H43.71l1-18H34.28Z"/><path class="cls-1" d="M105.78,86.13v17.11h8.6q5.43,0,7.72,2.09t2.3,6.93q0,4.93-2.34,7.1t-7.68,2.17H85.49q-5.51,0-7.89-2.17t-2.38-7.1q0-4.42,2.25-6.72t6.6-2.3h1.42V41H84.08a8.69,8.69,0,0,1-6.55-2.38q-2.3-2.38-2.3-6.8,0-4.84,2.42-7.05t7.85-2.21H120q20.45,0,30.93,7.85t10.48,23.12q0,16.11-10.43,24.38t-31,8.26Zm0-45.16V67.35h11.85q9.85,0,14.82-3.34t5-10a10.88,10.88,0,0,0-5.13-9.64Q127.15,41,117.63,41Z"/><path class="cls-2" d="M152.72,93.4q6.8,0,11,3.76a13.67,13.67,0,0,1,0,19.64q-4.16,3.8-11,3.8a15.54,15.54,0,0,1-10.85-3.8,13.55,13.55,0,0,1,0-19.6A15.54,15.54,0,0,1,152.72,93.4Z"/><path class="cls-1" d="M229.25,103.25H247.2q5.76,0,8.18,2.09t2.42,6.93q0,4.93-2.46,7.1t-8.14,2.17H190.77q-5.68,0-8.14-2.17t-2.46-7.1q0-4.84,2.38-6.93t8.22-2.09h17.95V62.67h-9.43q-5.59,0-8-2.13t-2.42-7.05q0-4.92,2.34-7t8.1-2.09h25.13a5.81,5.81,0,0,1,3.59,1A3.14,3.14,0,0,1,229.25,48Z"/><path class="cls-1" d="M276.4,62.67l15,35.56,15.78-35.56h-1.34q-4.51,0-6.89-2.34t-2.38-6.85q0-4.92,2.38-7t8.22-2.09h19.62q5.84,0,8.22,2.13t2.38,7q0,4.51-2.34,6.85t-6.84,2.34h-1.42L302,115.35q-2.75,5.68-5,7t-6.8,1.29q-8.35,0-11.27-7l-.5-1.25L255.2,62.67h-1.34q-4.51,0-6.89-2.34t-2.38-6.85q0-4.92,2.42-7t8.18-2.09h21.2q5.76,0,8.18,2.13t2.42,7q0,4.51-2.38,6.85t-6.8,2.34Z"/><path class="cls-1" d="M410.23,103.25h1.34q4.51,0,6.89,2.38t2.38,6.8q0,4.84-2.46,7t-8.14,2.13h-7.85q-4.18,0-6.22-1.59t-3.38-5.76a57.49,57.49,0,0,1-14.69,7,52.47,52.47,0,0,1-15.69,2.42q-13.44,0-21.12-6.68T333.6,98.65q0-12.52,9.93-19.45t27.88-6.93q4,0,8.51.42T390,74V72.44q0-7.51-3.63-11.44t-10.73-3.92q-5.51,0-14.07,4.09T349,65.26a8.84,8.84,0,0,1-6.34-2.3,8,8,0,0,1-2.42-6.05q0-6.76,9.89-10.73t26.92-4q17.78,0,25.46,6.85t7.68,23.21ZM390,87.13q-4.17-.92-7.68-1.38a50.41,50.41,0,0,0-6.51-.46q-9.18,0-14.4,3.09t-5.22,8.52a8.72,8.72,0,0,0,3.34,7.39q3.34,2.55,9.6,2.55A34.61,34.61,0,0,0,380,105.17,37.39,37.39,0,0,0,390,100Z"/><text class="cls-3" transform="translate(244.55 32.3)">R<tspan class="cls-4" x="24.21" y="0">I</tspan><tspan class="cls-5" x="47" y="0">C</tspan><tspan class="cls-6" x="71.28" y="0">E</tspan><tspan class="cls-7" x="95.55" y="0">R</tspan><tspan class="cls-8" x="119.62" y="0">C</tspan><tspan class="cls-9" x="144.47" y="0">A</tspan></text><path class="cls-1" d="M211.76,7.65q7.85,0,12.65,4.34a14.59,14.59,0,0,1,4.8,11.35,14.62,14.62,0,0,1-4.8,11.31Q219.61,39,211.76,39q-7.68,0-12.52-4.38a14.56,14.56,0,0,1-4.84-11.31A14.56,14.56,0,0,1,199.24,12Q204.08,7.65,211.76,7.65Z"/></svg>